<?xml version="1.0" standalone="no"?>
<!DOCTYPE svg PUBLIC "-//W3C//DTD SVG 20010904//EN"
 "http://www.w3.org/TR/2001/REC-SVG-20010904/DTD/svg10.dtd">
<svg version="1.0" xmlns="http://www.w3.org/2000/svg"
 width="146.000000pt" height="233.000000pt" viewBox="0 0 146.000000 233.000000"
 preserveAspectRatio="xMidYMid meet">

<g transform="translate(0.000000,233.000000) scale(0.100000,-0.100000)"
fill="#000000" stroke="none">
<path d="M168 2319 c-47 -14 -113 -71 -141 -123 l-22 -41 0 -985 0 -985 31
-55 c42 -74 100 -110 188 -117 113 -9 198 37 242 132 21 45 24 64 24 190 l0
140 98 98 c53 53 100 97 104 97 4 0 73 -120 154 -267 193 -350 234 -393 382
-393 67 0 147 42 187 99 25 36 30 54 33 116 2 41 -1 88 -7 105 -6 18 -97 180
-202 362 l-191 331 165 166 c180 180 206 219 207 307 0 66 -38 143 -88 177
-80 56 -181 56 -267 0 -22 -15 -159 -148 -305 -296 l-265 -270 -5 530 -5 530
-30 49 c-43 68 -106 105 -187 110 -35 2 -79 -2 -100 -7z m150 -202 c27 -55
-24 -124 -82 -113 -57 12 -81 53 -63 110 20 61 115 64 145 3z m940 -573 c27
-31 28 -63 2 -97 -26 -33 -63 -41 -99 -23 -61 32 -55 119 10 145 32 13 59 5
87 -25z m-942 -1255 c28 -54 -9 -113 -71 -113 -59 0 -93 48 -73 105 22 64 112
69 144 8z"/>
</g>
</svg>
